<svg width="159" height="159" viewBox="0 0 159 159" fill="none" xmlns="http://www.w3.org/2000/svg">
<g clip-path="url(#clip0_251_476)">
<path fill-rule="evenodd" clip-rule="evenodd" d="M103.199 44.6559H143.649V33.0725H103.199V44.6559ZM123.138 67.9197C114.114 67.9197 107.261 73.5098 106.602 83.8391H138.974C136.78 71.5803 131.334 67.9197 123.138 67.9197ZM124.402 115.829C132.733 115.829 138.847 110.566 140.095 106.132H157.617C152.608 122.168 142.265 131.174 123.694 131.174C99.9951 131.174 86.6947 114.319 86.6947 91.9521C86.6947 39.2795 162.697 37.3911 158.881 96.8704H106.602C107.11 108.949 112.095 115.829 124.402 115.829ZM45.5535 113.512C55.1173 113.512 61.8113 109.833 61.8113 99.906C61.8113 89.6097 55.8965 85.1434 45.9669 85.1434H22.0056V113.512H45.5535ZM44.2894 69.6588C52.2474 69.6588 57.7409 65.9545 57.7409 57.3495C57.7409 48.2847 51.3491 45.4866 42.612 45.4866H22.0056V69.6588H44.2894ZM47.0958 27.8242C65.9453 27.8242 79.0469 34.0546 79.0469 53.4405C79.0469 63.039 75.1911 70.192 65.4524 75.0118C77.918 78.7149 83.8168 88.4382 83.8168 101.214C83.8168 121.495 67.734 131.174 48.495 131.174H0V27.8242H47.0958Z" fill="#FFEDA8"/>
</g>
<defs>
<clipPath id="clip0_251_476">
<rect width="159" height="159" fill="white"/>
</clipPath>
</defs>
</svg>
