<svg width="1510" height="118" viewBox="0 0 1510 118" fill="none" xmlns="http://www.w3.org/2000/svg">
<path d="M23.2523 59.16C23.2523 80.76 39.5723 95.96 62.2923 95.96C78.4523 95.96 91.0923 88.44 97.3323 76.28H121.012C114.132 101.4 91.0923 117.4 62.2923 117.4C27.2523 117.4 0.852266 92.44 0.852266 59.16C0.852266 25.4 27.0923 0.599995 62.2923 0.599995C91.0923 0.599995 113.972 16.6 121.012 41.72H97.3323C91.2523 29.4 78.6123 22.04 62.2923 22.04C39.4123 22.04 23.2523 37.08 23.2523 59.16ZM154.421 59.16C154.421 25.4 180.661 0.599995 215.861 0.599995C250.901 0.599995 277.141 24.12 277.141 59.16C277.141 93.72 250.901 117.4 215.861 117.4C180.821 117.4 154.421 92.44 154.421 59.16ZM176.821 59.16C176.821 80.76 193.141 95.96 215.861 95.96C239.061 95.96 254.741 80.76 254.741 59.16C254.741 37.08 239.061 22.04 215.861 22.04C192.981 22.04 176.821 37.08 176.821 59.16ZM340.662 42.84V115H318.262V2.99999H346.742L382.902 88.28L418.902 2.99999H447.382V115H424.982V43.16L394.102 115H371.542L340.662 42.84ZM515.79 2.99999V115H493.39V2.99999H515.79ZM584.05 40.28V115H561.65V2.99999H579.57L649.17 77.24V2.99999H671.57V115H653.49L584.05 40.28ZM733.566 59.16C733.566 81.24 749.726 96.6 772.286 96.6C789.406 96.6 802.686 86.68 807.166 71.16H771.166V52.44H833.086V115H812.926L811.166 99.96C800.606 111.16 786.366 117.4 769.566 117.4C736.126 117.4 711.166 92.44 711.166 59.16C711.166 25.4 736.286 0.599995 771.006 0.599995C799.646 0.599995 822.046 16.92 829.246 42.68H806.846C800.766 29.4 787.646 21.24 770.846 21.24C749.086 21.24 733.566 36.92 733.566 59.16ZM1040.12 83.8C1040.12 102.36 1022.04 117.4 992.124 117.4C962.044 117.4 938.684 102.68 937.084 80.6H960.444C962.844 91.32 975.484 98.2 991.804 98.2C1007 98.2 1017.72 91.8 1017.72 83.16C1017.72 56.44 938.524 83.64 938.524 32.44C938.524 12.76 959.324 0.599995 986.844 0.599995C1015.96 0.599995 1036.44 14.52 1038.2 34.84H1015C1013.08 26.2 1001.24 19.16 986.844 19.16C971.164 19.16 960.924 25.08 960.924 33.08C960.924 57.88 1040.12 31.96 1040.12 83.8ZM1076.75 59.16C1076.75 25.4 1102.99 0.599995 1138.19 0.599995C1173.23 0.599995 1199.47 24.12 1199.47 59.16C1199.47 93.72 1173.23 117.4 1138.19 117.4C1103.15 117.4 1076.75 92.44 1076.75 59.16ZM1099.15 59.16C1099.15 80.76 1115.47 95.96 1138.19 95.96C1161.39 95.96 1177.07 80.76 1177.07 59.16C1177.07 37.08 1161.39 22.04 1138.19 22.04C1115.31 22.04 1099.15 37.08 1099.15 59.16ZM1235.63 59.16C1235.63 25.4 1261.87 0.599995 1297.07 0.599995C1332.11 0.599995 1358.35 24.12 1358.35 59.16C1358.35 93.72 1332.11 117.4 1297.07 117.4C1262.03 117.4 1235.63 92.44 1235.63 59.16ZM1258.03 59.16C1258.03 80.76 1274.35 95.96 1297.07 95.96C1320.27 95.96 1335.95 80.76 1335.95 59.16C1335.95 37.08 1320.27 22.04 1297.07 22.04C1274.19 22.04 1258.03 37.08 1258.03 59.16ZM1421.87 40.28V115H1399.47V2.99999H1417.39L1486.99 77.24V2.99999H1509.39V115H1491.31L1421.87 40.28Z" fill="#5A5A78"/>
</svg>
