<svg width="159" height="159" viewBox="0 0 159 159" fill="none" xmlns="http://www.w3.org/2000/svg">
<path fill-rule="evenodd" clip-rule="evenodd" d="M79.5 119.25C101.453 119.25 119.25 101.453 119.25 79.5C119.25 57.5467 101.453 39.75 79.5 39.75C57.5467 39.75 39.75 57.5467 39.75 79.5C39.75 101.453 57.5467 119.25 79.5 119.25ZM79.5 106C94.1353 106 106 94.1353 106 79.5C106 64.8644 94.1353 53 79.5 53C64.8644 53 53 64.8644 53 79.5C53 94.1353 64.8644 106 79.5 106Z" fill="#FFEDA8"/>
<path d="M119.25 33.125C115.591 33.125 112.625 36.0911 112.625 39.75C112.625 43.4089 115.591 46.375 119.25 46.375C122.909 46.375 125.875 43.4089 125.875 39.75C125.875 36.0911 122.909 33.125 119.25 33.125Z" fill="#FFEDA8"/>
<path fill-rule="evenodd" clip-rule="evenodd" d="M10.9577 28.8289C6.62524 37.3319 6.62524 48.4629 6.62524 70.725V89.275C6.62524 111.537 6.62524 122.668 10.9577 131.171C14.7687 138.65 20.8496 144.732 28.3291 148.542C36.8321 152.875 47.9632 152.875 70.2252 152.875H88.7752C111.037 152.875 122.169 152.875 130.671 148.542C138.151 144.732 144.232 138.65 148.042 131.171C152.375 122.668 152.375 111.537 152.375 89.275V70.725C152.375 48.4629 152.375 37.3319 148.042 28.8289C144.232 21.3494 138.151 15.2684 130.671 11.4575C122.169 7.125 111.037 7.125 88.7752 7.125H70.2252C47.9632 7.125 36.8321 7.125 28.3291 11.4575C20.8496 15.2684 14.7687 21.3494 10.9577 28.8289ZM88.7752 20.375H70.2252C58.8756 20.375 51.1602 20.3853 45.1965 20.8725C39.3875 21.3472 36.4168 22.2074 34.3445 23.2633C29.3582 25.804 25.3042 29.858 22.7635 34.8443C21.7077 36.9166 20.8474 39.8872 20.3728 45.6963C19.8856 51.6599 19.8752 59.3753 19.8752 70.725V89.275C19.8752 100.625 19.8856 108.34 20.3728 114.304C20.8474 120.113 21.7077 123.084 22.7635 125.156C25.3042 130.142 29.3582 134.196 34.3445 136.736C36.4168 137.793 39.3875 138.653 45.1965 139.127C51.1602 139.614 58.8756 139.625 70.2252 139.625H88.7752C100.125 139.625 107.84 139.614 113.804 139.127C119.613 138.653 122.584 137.793 124.656 136.736C129.642 134.196 133.696 130.142 136.237 125.156C137.293 123.084 138.153 120.113 138.628 114.304C139.115 108.34 139.125 100.625 139.125 89.275V70.725C139.125 59.3753 139.115 51.6599 138.628 45.6963C138.153 39.8872 137.293 36.9166 136.237 34.8443C133.696 29.858 129.642 25.804 124.656 23.2633C122.584 22.2074 119.613 21.3472 113.804 20.8725C107.84 20.3853 100.125 20.375 88.7752 20.375Z" fill="#FFEDA8"/>
</svg>
