<svg width="159" height="159" viewBox="0 0 159 159" fill="none" xmlns="http://www.w3.org/2000/svg">
<g clip-path="url(#clip0_251_483)">
<path d="M139.156 31.4571C113.15 4.2976 70.0228 -1.08915 37.312 18.3784C-5.44937 43.8225 -6.30616 92.9295 9.81464 120.842C33.6786 162.177 84.7614 162.964 103.115 155.149C115.261 149.984 109.859 134.175 98.1634 138.893C75.0689 148.221 36.2065 138.873 22.6284 107.53C10.1674 78.7928 22.9942 48.1959 43.0351 34.3738C61.8896 21.3774 97.341 17.5676 123.762 40.6915C152.11 65.4949 140.076 108.304 130.016 118.643C127.437 121.274 122.79 119.156 123.206 115.054L123.176 52.4025C123.176 50.6377 121.966 45.0681 116.08 45.0681L115.128 45.073C111.361 45.073 108.65 48.1117 108.65 52.1405V52.1091C100.281 43.715 88.8761 38.3543 76.748 38.3543C52.7853 38.3543 31.701 59.6839 31.701 83.8842C31.701 107.847 52.7853 128.926 76.748 128.926C88.8761 128.926 100.007 124.083 108.372 115.783L108.497 120.257C108.383 133.942 126.224 143.079 138.237 133.688C164.754 113.022 166.339 59.8526 139.156 31.4571ZM76.5881 114.162C60.6204 114.162 48.4429 102.693 48.4429 84.5423C48.4429 68.3274 58.5078 54.0537 76.6574 54.0537H77.2539C92.9794 54.0537 106.004 64.6049 106.905 82.1495L106.944 85.6941C106.097 101.121 94.3911 114.162 76.5881 114.162Z" fill="#FFEDA8"/>
</g>
<defs>
<clipPath id="clip0_251_483">
<rect width="159" height="159" fill="white"/>
</clipPath>
</defs>
</svg>
