<svg width="180" height="150" viewBox="0 0 180 150" fill="none" xmlns="http://www.w3.org/2000/svg">
<path d="M25.0007 15.7248C23.9634 9.547 22.8855 8.59095 23.7332 6.20759C25.4801 1.28919 34.5234 -1.81189 38.0415 1.16731C39.6909 2.56212 39.848 5.05924 39.9699 7.00385C40.1784 10.2972 39.1547 11.8356 38.1417 15.9008C36.7848 21.3419 36.6007 26.6206 37.1884 26.756C37.6488 26.8616 37.9169 23.6522 40.3788 20.1882C43.7318 15.4675 46.5106 16.5373 49.7958 12.2364C53.2382 7.7324 51.6727 4.52298 55.0853 2.31566C57.317 0.869392 60.67 0.511887 62.9152 2.0042C66.279 4.24131 66.1436 9.96138 64.6269 13.5175C63.3485 16.5129 60.9652 18.1217 56.2011 21.3447C50.6923 25.0687 49.4979 24.5676 47.0739 27.1866C44.4333 30.0385 41.7899 35.0111 43.3499 38.6647C44.3358 40.9749 46.3048 41.1239 49.6117 43.1822C59.2264 49.1677 61.8562 59.8956 62.2841 61.6479C63.205 65.4098 64.2667 69.7161 61.6937 72.4028C58.8662 75.3576 52.9213 75.1952 50.6842 72.5789C48.8506 70.4338 50.8846 68.3213 49.9638 63.1158C48.8967 57.0924 44.9831 53.2601 41.9849 50.3242C39.7776 48.1629 37.1126 45.5521 35.279 46.3348C33.2206 47.215 33.3425 51.8923 33.356 52.4503C33.4454 55.8791 34.7617 56.4749 34.9486 59.8766C35.0081 60.9545 35.0325 64.256 33.0202 66.2602C30.0329 69.234 22.5361 68.3132 20.0905 64.6406C17.7396 61.1089 21.6478 57.4445 24.1557 43.9622C25.1064 38.8516 25.4178 34.6942 25.537 32.5221C25.8105 27.5495 26.1003 22.3007 24.9953 15.7221L25.0007 15.7248Z" fill="#5A5A78"/>
<path d="M70.913 19.7955C70.16 33.3834 73.0011 34.7566 71.2813 43.7944C69.8703 51.2045 67.3108 53.6962 69.074 57.496C71.2326 62.1517 78.082 64.9007 80.7281 62.9697C83.3336 61.0684 80.1377 55.8846 80.46 44.6665C80.6441 38.2287 81.8846 33.3889 83.014 28.9823C86.6215 14.9015 91.456 10.8092 89.0618 6.72225C86.7271 2.73554 79.317 1.26218 75.2057 3.90013C71.739 6.12641 71.414 10.7658 70.9157 19.7955H70.913Z" fill="#5A5A78"/>
<path d="M1.06945 78.1002C-0.885989 81.3069 -0.103271 86.8373 2.95448 89.1557C7.43141 92.5466 13.5523 86.6288 17.5851 89.562C22.2543 92.9583 19.8303 105.1 17.7747 111.364C14.7603 120.548 10.3483 123.723 12.1331 128.389C13.4034 131.707 17.1897 134.323 20.5155 133.966C24.941 133.489 27.2973 127.888 28.5513 124.912C29.8946 121.718 30.6665 118.141 30.5148 107.759C30.3117 93.8899 28.7652 89.8951 31.5549 87.5415C35.0568 84.5867 40.4166 88.4136 43.4419 84.9902C45.4082 82.764 45.3838 78.612 43.5421 76.2449C42.6727 75.1264 41.3537 74.3464 36.6981 73.6205C32.1453 72.9109 26.4062 72.6022 11.4127 73.9184C11.2963 73.9293 11.0525 73.9536 10.7275 73.9888C6.12327 74.4791 2.74864 75.3512 1.06945 78.1029V78.1002Z" fill="#5A5A78"/>
<path d="M162.38 42.9331C161.175 38.884 155.333 19.2403 146.945 19.1915C134.178 19.1157 117.654 64.4673 129.379 75.141C132.461 77.9468 138.273 79.0708 140.724 76.942C144.499 73.6622 138.85 63.9067 143.21 60.3614C144.724 59.1318 147.229 58.8203 148.513 59.8143C150.837 61.61 147.525 66.4065 149.412 71.3005C151.132 75.7639 156.893 79.5692 160.308 78.3748C166.443 76.227 166.67 57.3497 162.383 42.9331H162.38ZM150.127 47.2637C149.025 48.3173 147.435 48.2902 145.989 48.2658C144.505 48.2415 141.777 48.2252 140.588 46.4404C139.462 44.7531 140.375 42.4781 141.144 40.5632C141.672 39.247 143.597 34.4477 146.287 34.5967C148.957 34.7457 150.366 39.6722 150.609 40.5389C151.01 41.9716 151.993 45.4762 150.13 47.261L150.127 47.2637Z" fill="#5A5A78"/>
<path d="M64.8867 84.0651C59.348 81.0263 52.9671 83.1713 51.4315 83.6886C38.5884 88.0084 33.1392 104.724 34.3281 116.958C34.6694 120.476 35.3708 127.689 41.1397 133.054C46.2287 137.788 55.0309 140.87 61.6989 137.423C67.0127 134.676 68.7027 128.956 70.4469 122.716C73.2989 112.508 76.2618 90.3106 64.884 84.0678L64.8867 84.0651ZM61.1572 108.977C60.7835 112.931 60.361 117.378 56.7426 119.317C53.674 120.961 49.5465 120.135 47.0412 117.898C43.0653 114.345 44.4439 108.365 44.9341 106.236C45.4054 104.194 46.3154 100.25 49.8362 98.3815C52.4336 97.0029 56.6397 96.6563 58.6384 98.7471C58.6818 98.7932 58.763 98.8798 58.893 99.045C60.5289 101.109 61.5554 104.773 61.1572 108.974V108.977Z" fill="#5A5A78"/>
<path d="M109.225 119.807C107.885 116.378 105.71 113.792 104.255 112.039C100.377 107.359 98.1182 106.725 98.2428 104.654C98.3917 102.178 101.68 102.097 104.87 97.777C105.42 97.0322 107.56 94.0909 107.847 90.3831C108.131 86.6997 106.016 80.6465 100.667 77.2232C92.0271 71.6981 78.2009 74.9725 75.4031 80.6926C74.2223 83.1084 75.9258 84.0835 77.1933 91.5992C77.6971 94.5838 78.7507 101.114 77.6727 108.651C77.0471 113.02 77.5671 116.213 75.8933 122.22C75.8283 122.456 74.7802 126.486 77.8298 129.183C79.9803 131.084 83.6718 131.894 85.9197 130.694C91.5964 127.664 86.4153 113.616 90.1177 112.575C90.9031 112.356 91.6777 112.835 92.9561 113.629C97.303 116.321 98.622 121.383 99.5238 125.045C100.531 129.134 100.133 130.573 101.747 131.716C103.676 133.083 107.107 133.062 109.028 131.659C112.781 128.915 109.9 121.54 109.223 119.81L109.225 119.807ZM95.3963 93.189C94.2967 96.0869 89.2618 96.8263 87.5014 95.4451C86.9408 95.0036 86.7756 94.21 86.4478 92.6175C85.9495 90.2017 85.7003 88.9937 86.3801 88.1623C87.5799 86.697 91.1604 86.5833 93.4138 88.1731C95.0036 89.2944 96.0842 91.3744 95.3963 93.189Z" fill="#5A5A78"/>
<path d="M123.618 62.6668C122.591 58.894 120.587 55.9148 119.252 53.8998C115.687 48.5155 113.375 47.592 113.743 45.4172C114.182 42.8198 117.665 43.1096 121.521 38.9062C122.188 38.1804 124.779 35.3204 125.505 31.4366C126.226 27.5798 124.679 20.9443 119.417 16.7247C110.918 9.90774 95.9462 11.7982 92.344 17.521C90.8219 19.9368 92.512 21.161 92.9968 29.2401C93.1891 32.4495 93.5601 39.4642 91.5667 47.3022C90.4103 51.8441 90.5971 55.2756 88.1461 61.429C88.0513 61.6701 86.4886 65.8085 89.4 69.0043C91.453 71.2577 95.261 72.5306 97.7716 71.5177C104.109 68.9637 100.234 53.5368 104.264 52.8597C105.117 52.7162 105.88 53.3093 107.143 54.2925C111.427 57.6292 112.248 63.1245 112.781 67.0922C113.38 71.5258 112.798 72.9992 114.374 74.3913C116.256 76.0542 119.88 76.4198 122.071 75.1577C126.348 72.6877 124.14 64.5734 123.623 62.6668H123.618ZM112.037 32.9857C110.547 35.9216 105.144 36.1302 103.443 34.4699C102.901 33.9418 102.817 33.0832 102.652 31.3634C102.4 28.7553 102.273 27.4498 103.085 26.6509C104.518 25.2398 108.313 25.5242 110.512 27.4607C112.064 28.8257 112.968 31.1441 112.034 32.983L112.037 32.9857Z" fill="#5A5A78"/>
<path d="M142.267 137.265C141.086 133.78 139.034 131.093 137.663 129.275C134.004 124.419 131.778 123.685 132 121.622C132.265 119.154 135.551 119.227 138.936 115.057C139.521 114.336 141.793 111.498 142.251 107.809C142.706 104.145 140.873 97.9965 135.686 94.3321C127.309 88.4143 113.347 91.0469 110.29 96.6315C108.998 98.9905 110.655 100.044 111.573 107.609C111.939 110.612 112.689 117.185 111.265 124.663C110.439 128.997 110.812 132.211 108.86 138.135C108.784 138.367 107.551 142.346 110.471 145.182C112.529 147.181 116.18 148.158 118.482 147.064C124.292 144.299 119.763 130.026 123.512 129.159C124.305 128.975 125.058 129.489 126.299 130.343C130.516 133.232 131.602 138.351 132.333 142.048C133.151 146.178 132.688 147.598 134.248 148.816C136.111 150.271 139.54 150.409 141.525 149.095C145.404 146.528 142.863 139.028 142.267 137.268V137.265ZM129.682 110.035C128.449 112.879 123.385 113.385 121.692 111.923C121.153 111.457 121.026 110.655 120.771 109.049C120.384 106.612 120.191 105.393 120.909 104.594C122.177 103.186 125.757 103.237 127.935 104.93C129.47 106.124 130.453 108.25 129.682 110.033V110.035Z" fill="#5A5A78"/>
<path d="M178.061 126.594C176.721 123.165 174.546 120.579 173.091 118.826C169.213 114.146 166.954 113.513 167.079 111.441C167.228 108.965 170.516 108.884 173.706 104.564C174.256 103.819 176.396 100.878 176.683 97.1702C176.967 93.4868 174.852 87.4336 169.503 84.0103C160.863 78.4852 147.037 81.7596 144.239 87.4797C143.058 89.8956 144.762 90.8706 146.029 98.3863C146.533 101.371 147.587 107.901 146.509 115.438C145.883 119.807 146.403 123 144.729 129.007C144.664 129.243 143.616 133.273 146.666 135.97C148.816 137.872 152.508 138.681 154.756 137.482C160.432 134.451 155.251 120.403 158.954 119.363C159.739 119.143 160.514 119.623 161.792 120.416C166.139 123.108 167.458 128.17 168.36 131.832C169.367 135.922 168.969 137.36 170.583 138.503C172.512 139.87 175.943 139.849 177.863 138.446C181.617 135.702 178.736 128.327 178.058 126.597L178.061 126.594ZM164.232 99.9734C163.133 102.871 158.098 103.611 156.337 102.229C155.777 101.788 155.611 100.994 155.284 99.4019C154.785 96.9861 154.536 95.7781 155.216 94.9467C156.416 93.4814 159.996 93.3677 162.25 94.9575C163.84 96.0788 164.92 98.1588 164.232 99.9734Z" fill="#5A5A78"/>
</svg>
