<svg width="159" height="159" viewBox="0 0 159 159" fill="none" xmlns="http://www.w3.org/2000/svg">
<path fill-rule="evenodd" clip-rule="evenodd" d="M142.905 46.9042C133.248 88.3794 103.792 95.4 64.2254 95.4L52.2962 159H74.137C78.1161 159 79.7826 156.291 80.5162 152.475C85.9625 118.043 85.197 123.677 85.6914 118.287C86.1619 115.282 88.7613 111.3 91.8154 111.3C120.825 111.3 140.066 102.914 145.943 72.8077C148.032 62.0991 147.346 53.8366 142.905 46.9042ZM52.7428 94.2859L43.8199 143.1H16.1819C13.5665 143.1 11.565 139.904 11.9796 137.328L32.6163 5.97026C33.1585 2.53586 36.1329 0 39.6256 0H89.184C118.528 0 138.288 11.1395 133.719 40.1809C125.721 91.9036 81.3854 87.45 61.2111 87.45C57.7185 87.45 53.293 90.8515 52.7428 94.2859Z" fill="#FFEDA8"/>
</svg>
