<svg width="159" height="159" viewBox="0 0 159 159" fill="none" xmlns="http://www.w3.org/2000/svg">
<g clip-path="url(#clip0_251_491)">
<path fill-rule="evenodd" clip-rule="evenodd" d="M78.5143 0C34.9721 0 0 35.2554 0 79.17C0 111.765 19.1357 139.041 46.8494 151.683C46.8494 136.836 46.7459 138.75 58.0588 90.4739C51.8419 77.9281 56.6756 57.2144 70.596 57.2144C89.9145 57.2144 76.7891 85.8562 74.5551 97.1274C72.5756 105.777 79.1741 112.433 87.0923 112.433C102.269 112.433 112.159 93.136 112.159 70.5213C112.159 53.2216 100.289 40.5807 79.834 40.5807C43.4627 40.5807 34.2407 81.0865 46.8494 93.8007C50.0214 98.6026 46.8494 98.8274 46.8494 105.112C44.6472 111.758 27.0538 102.098 27.0538 77.1748C27.0538 54.5521 45.5297 27.9453 83.1332 27.9453C112.818 27.9453 132.614 49.8962 132.614 73.1842C132.614 104.449 115.458 127.072 90.3915 127.072C81.8134 127.072 73.8952 122.411 71.2558 117.088C66.462 135.734 65.4921 145.188 58.0588 155.673C65.3171 157.669 72.5755 159 80.4938 159C124.036 159 159 123.744 159 79.8377C157.028 35.2578 122.056 0 78.5143 0Z" fill="#FFEDA8"/>
</g>
<defs>
<clipPath id="clip0_251_491">
<rect width="159" height="159" fill="white"/>
</clipPath>
</defs>
</svg>
