<svg width="177" height="118" viewBox="0 0 177 118" fill="none" xmlns="http://www.w3.org/2000/svg">
<g clip-path="url(#clip0_251_397)">
<path d="M31.3754 92.2405C31.1336 66.6615 30.8954 41.079 30.6535 15.5C41.24 26.9752 51.83 38.4504 62.4165 49.9257C42.4455 50.2843 22.471 50.6429 2.5 51.0015" stroke="#5A5A78" stroke-width="4" stroke-miterlimit="10"/>
<path d="M38.9553 106.944V61.0429C49.4227 72.7584 59.89 84.4703 70.3573 96.1858V42.0371" stroke="#5A5A78" stroke-width="4" stroke-miterlimit="10"/>
<path d="M76.4932 100.847C76.6123 82.6768 76.735 64.5101 76.8541 46.3398C88.8843 66.6617 100.918 86.98 112.948 107.302" stroke="#5A5A78" stroke-width="4" stroke-miterlimit="10"/>
<path d="M76.4932 95.1094H105.091" stroke="#5A5A78" stroke-width="4" stroke-miterlimit="10"/>
<path d="M80.8245 40.9609C93.2156 61.7598 105.61 82.5586 118.002 103.357" stroke="#5A5A78" stroke-width="4" stroke-miterlimit="10"/>
<path d="M85.7515 38.9062C98.1426 59.7051 110.537 80.5039 122.929 101.303" stroke="#5A5A78" stroke-width="4" stroke-miterlimit="10"/>
<path d="M153.735 44.1874C154.544 42.6562 146.823 33.9171 136.41 33.4294C126.899 32.9847 120.348 39.6691 119.085 40.96C112.071 48.1177 111.877 57.0074 111.866 59.2486C111.851 61.5688 111.797 71.4554 119.806 78.6131C126.184 84.3112 134.861 85.7636 141.824 83.9921C147.07 82.6571 150.215 79.9839 152.178 77.8509C152.839 77.133 152.122 76.0502 151.158 76.2001C150.273 76.3379 149.099 76.4328 147.238 76.4615C146.365 76.4758 142.643 76.4722 138.575 74.6685C136.695 73.8365 131.025 71.3227 128.469 64.9863C128.151 64.2009 125.358 56.9249 129.552 50.2836C132.631 45.4138 137.586 43.8683 138.936 43.4702C146.805 41.1501 153.064 45.4605 153.735 44.1874Z" stroke="#5A5A78" stroke-width="4" stroke-miterlimit="10"/>
<path d="M144.892 100.31C146.083 99.8326 148.184 98.8106 150.126 96.7379C151.905 94.8337 152.775 92.8793 153.194 91.7031C153.45 92.7467 154.175 95.1098 156.301 97.2471C158.283 99.2373 160.456 100.012 161.495 100.31C160.333 100.776 158.232 101.798 156.301 103.896C154.403 105.957 153.565 108.091 153.194 109.275C152.836 108.102 152.02 105.961 150.126 103.896C148.18 101.773 146.047 100.761 144.892 100.31Z" stroke="#5A5A78" stroke-width="3" stroke-miterlimit="10"/>
<path d="M165.679 81.3361C165.679 81.3361 166.627 80.7211 167.25 80.041C168.384 78.8027 168.938 77.5345 169.208 76.7676C169.37 77.4447 169.832 78.9823 171.187 80.3702C172.45 81.6646 173.835 82.1659 174.5 82.3604C173.758 82.6635 172.421 83.3294 171.187 84.6911C169.976 86.0304 169.44 87.4183 169.208 88.189C168.982 87.4258 168.458 86.0342 167.25 84.6911C166.009 83.3107 165.238 82.9176 163.915 82.3604L165.679 81.3361Z" stroke="#5A5A78" stroke-width="2" stroke-miterlimit="10"/>
</g>
<defs>
<clipPath id="clip0_251_397">
<rect width="177" height="117" fill="white" transform="translate(0 0.5)"/>
</clipPath>
</defs>
</svg>
