<svg width="159" height="132" viewBox="0 0 159 132" fill="none" xmlns="http://www.w3.org/2000/svg">
<path d="M145.445 1.16533C145.445 1.16533 160.153 -4.54838 158.927 9.32779C158.519 15.0416 154.842 35.0396 151.982 56.6702L142.176 120.746C142.176 120.746 141.359 130.132 134.005 131.765C126.65 133.397 115.619 126.051 113.576 124.419C111.941 123.194 82.9329 104.829 72.7183 95.85C69.8582 93.4013 66.5896 88.5037 73.1268 82.79L116.027 41.9779C120.93 37.0803 125.833 25.6529 105.404 39.5291L48.2039 78.3008C48.2039 78.3008 41.6667 82.3819 29.4097 78.7089L2.85224 70.5464C2.85224 70.5464 -6.95356 64.4246 9.79801 58.3025C50.6555 39.1206 100.91 19.5307 145.445 1.16533Z" fill="#FFEDA8"/>
</svg>
